Coordinates
version=1
nRows=4
nColumns=63
inDegrees=yes

Units are S.I. units (second, meters, Newtons, ...)
If the header above contains a line with 'inDegrees', this indicates whether rotational values are in degrees (yes) or radians (no).

endheader
time	pelvis_tilt	pelvis_list	pelvis_rotation	pelvis_tx	pelvis_ty	pelvis_tz	hip_flexion_r	hip_adduction_r	hip_rotation_r	knee_angle_r	knee_angle_r_beta	ankle_angle_r	subtalar_angle_r	mtp_angle_r	hip_flexion_l	hip_adduction_l	hip_rotation_l	knee_angle_l	knee_angle_l_beta	ankle_angle_l	subtalar_angle_l	mtp_angle_l	L5_S1_Flex_Ext	L5_S1_Lat_Bending	L5_S1_axial_rotation	L4_L5_Flex_Ext	L4_L5_Lat_Bending	L4_L5_axial_rotation	L3_L4_Flex_Ext	L3_L4_Lat_Bending	L3_L4_axial_rotation	L2_L3_Flex_Ext	L2_L3_Lat_Bending	L2_L3_axial_rotation	L1_L2_Flex_Ext	L1_L2_Lat_Bending	L1_L2_axial_rotation	L1_T12_Flex_Ext	L1_T12_Lat_Bending	L1_T12_axial_rotation	Abs_r3	Abs_r2	Abs_r1	Abs_t1	Abs_t2	neck_flexion	neck_bending	neck_rotation	arm_flex_r	arm_add_r	arm_rot_r	elbow_flex_r	pro_sup_r	wrist_flex_r	wrist_dev_r	arm_flex_l	arm_add_l	arm_rot_l	elbow_flex_l	pro_sup_l	wrist_flex_l	wrist_dev_l
      3.69491525	     -4.97322755	    -13.01996966	     86.70181118	      0.19650971	      0.88144360	      0.64865437	     11.83999086	     -5.87841577	      1.09948537	      8.01319742	      0.13985668	     27.81798060	     12.94944541	      0.00000000	     13.30492765	      5.16778211	      5.63060356	     11.60002645	      0.20245865	     21.68843587	    -11.79136092	      0.00000000	      0.01145752	     -0.69325119	      0.14368840	      0.02127777	     -0.92202408	      0.15266892	      0.01882357	     -1.68557094	      0.15266892	      0.01309480	     -1.68557094	      0.12572735	      0.01063946	     -1.41367783	      0.11674682	      0.00654683	     -1.07384609	      0.10776630	      0.08183994	     -7.84219612	      0.79915176	      0.00000000	      0.00000000	      3.66097787	     12.20489380	     -9.68032827	    277.54030874	   -191.07766432	    366.32904517	      4.57360085	      7.62091761	     -2.68880224	     -7.33896012	     95.13358662	      7.64074769	    131.89841301	      6.60957920	     63.47053636	     -4.58907227	      7.61897568
      3.71186441	     -4.98628639	    -13.58958117	     86.73237684	      0.19668299	      0.88088860	      0.64884608	     12.42963274	     -5.84361345	      1.16433205	      8.02329107	      0.14003285	     27.84567260	     12.86392201	      0.00000000	     13.94899645	      5.12857288	      5.67785628	     11.63415096	      0.20305424	     21.46198855	    -11.86276401	      0.00000000	      0.04178246	     -0.70176020	      0.04441265	      0.07759420	     -0.93334106	      0.04718844	      0.06864440	     -1.70625974	      0.04718844	      0.04775317	     -1.70625974	      0.03886107	      0.03879919	     -1.43102939	      0.03608528	      0.02387450	     -1.08702654	      0.03330949	      0.29844792	     -7.93845170	      0.24700984	      0.00000000	      0.00000000	      4.26015567	     13.07022726	    -10.63256997	    278.78658348	   -190.85542652	    366.60454993	      4.98924571	      8.01278907	     -3.62523268	     -5.71987155	     95.43413607	      6.34777696	    131.75129204	      6.41396906	     63.13610407	     -5.72490456	      6.70969083
      3.72881356	     -4.97559429	    -14.26044454	     86.81961089	      0.19672421	      0.88012031	      0.64863189	     13.01802267	     -5.79288155	      1.20867242	      7.87726936	      0.13748429	     27.88754972	     12.82565998	      0.00000000	     14.60373881	      5.07448813	      5.70177361	     11.50034352	      0.20071886	     21.13204451	    -11.89333941	      0.00000000	      0.09339640	     -0.70057525	      0.00051916	      0.17344646	     -0.93176508	      0.00055161	      0.15344095	     -1.70337867	      0.00055161	      0.10674275	     -1.70337867	      0.00045426	      0.08672790	     -1.42861305	      0.00042182	      0.05336670	     -1.08519106	      0.00038937	      0.66712117	     -7.92504736	      0.00288740	      0.00000000	      0.00000000	      5.02486988	     13.48885365	    -11.49825256	    280.06545478	   -190.03988206	    366.74884363	      5.47241298	      8.22864642	     -4.02387825	     -4.86685675	     95.71303415	      5.32053651	    131.93865182	      5.97191617	     63.19705521	     -6.36014871	      6.09607502
      3.74576271	     -5.11926998	    -14.88801094	     87.02922136	      0.19686655	      0.87932571	      0.64826823	     13.63519101	     -5.91872601	      1.22042851	      7.95824037	      0.13889750	     28.15453418	     12.60488710	      0.00000000	     15.33970344	      5.22479971	      6.03061937	     11.66385430	      0.20357266	     20.90891843	    -12.16267038	      0.00000000	      0.13370062	     -0.72659686	      0.00412291	      0.24829542	     -0.96637382	      0.00438059	      0.21965674	     -1.76664760	      0.00438059	      0.15280644	     -1.76664760	      0.00360754	      0.12415439	     -1.48167631	      0.00334986	      0.07639653	     -1.12549853	      0.00309218	      0.95501014	     -8.21940897	      0.02293037	      0.00000000	      0.00000000	      5.99624115	     13.77215170	    -13.42303653	    281.36222511	   -188.60926632	    366.74118073	      6.18160573	      8.34217323	     -4.92781474	     -4.03979922	     96.03340102	      4.59496889	    132.66731029	      5.33341139	     63.38896944	     -7.89158033	      4.83301253
